<svg width="100" height="28" viewBox="0 0 100 28" fill="none" xmlns="http://www.w3.org/2000/svg">
<path d="M2.8999 19.45L6.2999 16.85C8.0999 19.2 9.9999 20.25 12.0999 20.25C14.1999 20.25 16.0499 19.2 17.7499 16.85L21.1499 19.35C18.6499 22.7 15.5999 24.45 12.0499 24.45C8.4999 24.45 5.4499 22.75 2.8999 19.45Z" fill="url(#paint0_linear_0_385)"/>
<path d="M12.05 8.20005L6.05 13.35L3.25 10.1501L12.05 2.55005L20.75 10.1501L18 13.35L12.05 8.20005Z" fill="url(#paint1_linear_0_385)"/>
<path d="M34.1 21.35C32.2 21.4 30.35 20.7 28.95 19.35C27.55 18 26.8 16.1 26.9 14.15C26.8 10.25 29.85 6.95003 33.8 6.85003C33.9 6.85003 34.05 6.85003 34.15 6.85003C36.45 6.80003 38.7 7.80003 40.15 9.65003L37.9 12.05C36.8 10.9 35.65 10.3 34.35 10.3C33.35 10.25 32.35 10.65 31.65 11.4C30.9 12.15 30.55 13.15 30.55 14.2C30.55 15.2 30.9 16.2 31.65 16.95C32.35 17.65 33.35 18.05 34.35 18.05C35.75 18.05 37.1 17.35 37.95 16.25L40.3 18.5C39.6 19.4 38.7 20.1 37.7 20.6C36.6 21.05 35.35 21.35 34.1 21.35ZM44.3 6.65002V21.15H40.95V6.65002H44.3ZM47.45 9.70003C46.4 9.70003 45.55 8.85002 45.55 7.80002C45.55 6.75002 46.4 5.90002 47.45 5.90002C48.5 5.90002 49.35 6.75002 49.35 7.80002C49.4 8.85002 48.55 9.70002 47.55 9.75002C47.5 9.70002 47.5 9.70003 47.45 9.70003ZM49.15 10.65V21.15H45.8V10.65H49.15ZM55.6 21.35C54.1 21.4 52.65 20.85 51.6 19.8C49.55 17.55 49.55 14.15 51.6 11.9C52.7 10.85 54.15 10.3 55.65 10.35C57.8 10.25 59.75 11.45 60.65 13.4L57.95 14.8C57.5 13.95 56.65 13.45 55.7 13.45C55.05 13.45 54.45 13.7 53.95 14.15C53.5 14.6 53.3 15.2 53.3 15.85C53.25 17.15 54.25 18.2 55.55 18.25C55.6 18.25 55.65 18.25 55.65 18.25C56.6 18.25 57.45 17.75 57.9 16.9L60.55 18.5C59.6 20.3 57.65 21.4 55.6 21.35ZM72.25 21.1H68.25L65.15 16.95L64.65 17.4V21.1H61.3V6.60003H64.65V13.65L67.8 10.6H71.9L67.4 14.8L72.25 21.1ZM72.45 15.65V7.10003H76V15.65C76 17.25 76.9 18 78.2 18C79.5 18 80.4 17.2 80.4 15.65V7.10003H84V15.7C84 19.85 81.15 21.4 78.2 21.4C75.25 21.4 72.5 19.8 72.45 15.65ZM91.95 10.35C93.35 10.3 94.7 10.9 95.65 11.95C96.6 13 97.15 14.4 97.1 15.85C97.15 17.3 96.6 18.7 95.65 19.8C94.75 20.85 93.4 21.45 92 21.4C90.9 21.45 89.8 21 89 20.25V25.45H85.65V10.65H89V11.6C89.8 10.8 90.85 10.35 91.95 10.35ZM93.7 15.9C93.75 14.6 92.75 13.5 91.45 13.45C90.15 13.4 89.05 14.4 89 15.7C89 15.75 89 15.85 89 15.9C89 16.55 89.25 17.15 89.65 17.6C90.1 18.05 90.7 18.3 91.35 18.3C92 18.35 92.6 18.05 93.05 17.6C93.45 17.15 93.7 16.55 93.7 15.9Z" fill="white"/>
<defs>
<linearGradient id="paint0_linear_0_385" x1="2.63501" y1="20.6726" x2="21.3444" y2="20.6726" gradientUnits="userSpaceOnUse">
<stop stop-color="#8930FD"/>
<stop offset="1" stop-color="#49CCF9"/>
</linearGradient>
<linearGradient id="paint1_linear_0_385" x1="3.34003" y1="7.97064" x2="20.6482" y2="7.97064" gradientUnits="userSpaceOnUse">
<stop stop-color="#FF02F0"/>
<stop offset="1" stop-color="#FFC800"/>
</linearGradient>
</defs>
</svg>
