<svg width="100" height="34" viewBox="0 0 100 34" fill="none" xmlns="http://www.w3.org/2000/svg">
<g clip-path="url(#clip0_0_368)">
<path d="M91.6879 16.326H88.1498C85.8721 16.326 84.6518 18.1702 84.6518 21.2435V32.3531H77.9414V16.3249H75.0938C72.8161 16.3249 71.5969 18.1691 71.5969 21.2424V32.352H64.8854V10.3979H71.5969V13.7353C72.6955 11.1445 74.2002 10.3979 76.4377 10.3979H84.6529V13.7353C85.7515 11.1445 87.2562 10.3979 89.4937 10.3979H91.689L91.6879 16.326ZM63.4209 23.0877H49.4301C49.796 25.5469 51.2193 26.9521 53.6186 26.9521C55.4077 26.9521 56.6692 26.1609 57.0763 24.7569L63.0138 26.5565C61.5503 30.3763 57.9297 32.7041 53.6186 32.7041C46.3382 32.7041 43.0031 26.5999 43.0031 21.3761C43.0031 16.2391 45.9311 10.0915 53.2115 10.0915C60.9391 10.0915 63.5013 16.326 63.5013 20.937C63.5063 21.6549 63.4795 22.3726 63.4209 23.0877ZM56.9135 18.8288C56.7506 16.94 55.4892 15.185 53.2125 15.185C51.0966 15.185 49.8372 16.1934 49.4301 18.8288H56.9135ZM31.291 32.352H37.1872L44.549 10.4002H37.7984L34.219 23.1757L30.5582 10.3991H23.8468L31.291 32.352ZM3.79693 32.352H10.4672V16.326H16.8138V32.3531H23.4428V10.3991H10.4672V9.03849C10.4672 7.54532 11.4432 6.62379 12.9891 6.62379H16.8127V0.695679H11.8915C7.05063 0.695679 3.79693 3.90154 3.79693 8.59833V10.3991H0.0145264V16.3272H3.79693V32.352Z" fill="#1DBF73"/>
<path d="M95.8372 33.0105C98.1283 33.0105 99.9855 31.0048 99.9855 28.531C99.9855 26.0572 98.1283 24.0526 95.8372 24.0526C93.5461 24.0526 91.6879 26.0584 91.6879 28.5321C91.6879 31.0059 93.5461 33.0105 95.8372 33.0105Z" fill="#1DBF73"/>
</g>
<defs>
<clipPath id="clip0_0_368">
<rect width="100" height="32.6087" fill="white" transform="translate(0 0.695679)"/>
</clipPath>
</defs>
</svg>
