<svg width="100" height="32" viewBox="0 0 100 32" fill="none" xmlns="http://www.w3.org/2000/svg">
<g clip-path="url(#clip0_0_372)">
<path d="M67.1513 31.2248H64.5101C63.9735 31.2248 63.5621 30.9133 63.5219 30.3351L63.4799 29.2203C61.5805 30.8707 59.3111 31.7601 56.9176 31.7601C52.2967 31.7601 50.3996 28.5997 50.3996 23.7866V10.6116C50.3996 9.85386 50.8119 9.58636 51.47 9.58636H54.3599C55.0207 9.58636 55.3925 9.80797 55.3925 10.6116V22.8505C55.3925 25.3014 55.9699 26.9931 58.4466 26.9931C60.0122 26.9931 61.9943 26.0589 63.2323 24.8561V10.6116C63.2323 9.85386 63.6044 9.58636 64.2625 9.58636H67.1924C67.8535 9.58636 68.2256 9.80797 68.2256 10.6116V29.9785C68.2251 30.9133 67.9758 31.2248 67.1513 31.2248ZM0 10.475C0 9.94186 0.248048 9.58528 0.742395 9.58528H4.23308C4.72792 9.58528 5.01673 9.89732 5.01673 10.475V30.1113C5.01673 30.9133 4.68516 31.2248 3.98528 31.2248H1.07321C0.332815 31.2248 0 30.9133 0 30.1113V10.475ZM73.3878 10.475C73.3878 9.94186 73.6371 9.58528 74.131 9.58528H77.6214C78.1172 9.58528 78.406 9.89732 78.406 10.475V30.1113C78.406 30.9133 78.0755 31.2248 77.3731 31.2248H74.461C73.7204 31.2248 73.3878 30.9133 73.3878 30.1113V10.475ZM27.1353 31.2248H24.1647C23.4223 31.2248 23.175 30.8245 23.175 30.0663V17.9499C23.175 15.5013 22.5571 13.7635 20.0387 13.7635C18.4288 13.7635 16.4492 14.7007 15.1702 15.9017V30.1111C15.1702 30.8704 14.8812 31.2245 14.181 31.2245H11.1677C10.5486 31.2245 10.1767 30.8704 10.1767 30.1559V10.7041C10.1767 9.99099 10.4675 9.59068 11.2092 9.59068H13.89C14.4673 9.59068 14.8409 9.76802 14.8809 10.4361L14.9217 11.6251C16.8213 9.9783 19.2145 9.04353 21.608 9.04353C26.2294 9.04353 28.127 12.161 28.127 17.0162V30.0663C28.1267 30.8245 27.8799 31.2248 27.1353 31.2248ZM41.8414 3.50726C41.8414 1.70277 40.4874 0.239746 38.8156 0.239746C37.1447 0.239746 35.7887 1.70277 35.7887 3.50726C35.7887 5.31174 37.145 6.77315 38.8156 6.77315C40.4874 6.77315 41.8414 5.31174 41.8414 3.50726ZM46.148 9.58528C46.6428 9.58528 46.9319 9.76262 46.9319 10.3424V13.4793C46.9319 14.0135 46.6023 14.3255 46.1062 14.3255H41.3241V30.1111C41.3241 30.913 40.9942 31.2245 40.2508 31.2245H37.3795C36.6366 31.2245 36.3073 30.913 36.3073 30.1111V14.3255H31.5239C31.0291 14.3255 30.699 14.0135 30.699 13.4793V10.3424C30.699 9.76262 30.9875 9.58528 31.4831 9.58528H46.148ZM93.0466 3.50726C93.0466 1.70277 91.6914 0.239746 90.0198 0.239746C88.349 0.239746 86.9937 1.70277 86.9937 3.50726C86.9937 5.31174 88.349 6.77315 90.0198 6.77315C91.6914 6.77315 93.0466 5.31174 93.0466 3.50726ZM97.353 9.58528C97.8468 9.58528 98.1354 9.76262 98.1354 10.3424V13.4793C98.1354 14.0135 97.8066 14.3255 97.31 14.3255H92.5278V30.1111C92.5278 30.913 92.199 31.2245 91.4556 31.2245H88.5835C87.8404 31.2245 87.5113 30.913 87.5113 30.1111L87.5103 14.3255H82.7294C82.2333 14.3255 81.903 14.0135 81.903 13.4793V10.3424C81.903 9.76262 82.1928 9.58528 82.6864 9.58528H97.353ZM98.6605 28.4793C99.3899 28.4793 100 29.0999 100 29.914C100 30.7424 99.3899 31.3646 98.6605 31.3646C97.9278 31.3646 97.3135 30.7424 97.3135 29.914C97.3137 29.0999 97.9281 28.4793 98.6605 28.4793ZM98.6605 31.153C99.2794 31.153 99.7577 30.621 99.7577 29.914C99.7577 29.2241 99.2794 28.691 98.6605 28.691C98.0349 28.691 97.5558 29.2243 97.5558 29.914C97.5558 30.6212 98.0349 31.153 98.6605 31.153ZM98.1389 29.077H98.742C99.1141 29.077 99.2896 29.2351 99.2896 29.5599C99.2896 29.863 99.1118 29.9923 98.8783 30.0185L99.3256 30.7635H99.0641L98.6392 30.0371H98.3814V30.7635H98.1386V29.077H98.1389ZM98.3814 29.8252H98.6357C98.8503 29.8252 99.0463 29.8144 99.0463 29.5483C99.0463 29.324 98.8685 29.2899 98.7038 29.2899H98.3817V29.8252H98.3814Z" fill="#365EBF"/>
</g>
<defs>
<clipPath id="clip0_0_372">
<rect width="100" height="31.5217" fill="white" transform="translate(0 0.239136)"/>
</clipPath>
</defs>
</svg>
