<svg width="100" height="30" viewBox="0 0 100 30" fill="none" xmlns="http://www.w3.org/2000/svg">
<g clip-path="url(#clip0_0_379)">
<path d="M0.000915527 0.32605H99.9991V29.6739H0.000915527V0.32605Z" fill="#ED252F"/>
<path fill-rule="evenodd" clip-rule="evenodd" d="M28.0338 5.36646V24.736H21.6894L22.04 16.2838L18.5901 24.736H14.3599L13.1519 16.1585L11.105 24.7187H4.59406L9.91618 5.36646H16.8154L17.8889 13.2343L20.9691 5.36646H28.0338ZM63.5615 11.5068L60.7128 11.3828L59.2523 24.7187H52.35L53.9203 11.4094L51.2981 11.5068L46.8945 5.35779H64.1603L63.5615 11.5068ZM72.37 5.35779L71.0861 17.3844C71.0428 18.1114 71.3577 18.8371 71.9626 19.1466C72.586 19.3954 73.3638 19.2947 73.8514 18.7951C74.2835 18.3989 74.4378 17.8626 74.5551 17.301L76.0921 5.35779H82.6846L81.2587 18.6063C80.9501 20.4959 80.1291 22.2815 78.5489 23.4867C76.2711 25.2476 73.228 25.5164 70.2836 25.0829C67.9441 24.6253 65.2775 23.0052 64.5121 20.4739C64.1849 19.5621 64.2405 18.4643 64.2405 17.4678L65.6047 5.35846L72.37 5.35779ZM89.8573 18.5977H95.277L93.6782 24.7187H82.1352L84.5364 5.35779H91.3943L89.8573 18.5977Z" fill="white"/>
<path fill-rule="evenodd" clip-rule="evenodd" d="M44.6717 6.07552L45.355 6.63646L49.3895 12.1565C49.8389 13.0876 49.8574 14.2729 49.8179 15.3948C49.7605 19.1046 47.4803 22.5697 44.3007 24.1258C40.4224 26.0781 35.2367 25.1643 32.1966 21.97C29.5066 19.25 28.9603 14.6651 30.364 11.1387C32.0016 7.21675 35.8601 4.76687 39.8379 4.9563C41.5533 4.99632 43.2094 5.3078 44.6717 6.07618V6.07552ZM40.5008 11.3881C39.0385 11.178 37.6539 11.9051 36.9138 13.2957C36.2904 14.4583 36.1336 16.0751 36.7959 17.259C37.2644 18.2535 38.2397 18.9399 39.2724 19.0426C40.6169 19.1673 41.807 18.4636 42.5082 17.259C43.2291 16.1398 43.2699 14.3116 42.6829 13.1097C42.2934 12.1965 41.3767 11.5542 40.5008 11.3881Z" fill="white"/>
</g>
<defs>
<clipPath id="clip0_0_379">
<rect width="100" height="29.3478" fill="white" transform="translate(0 0.32605)"/>
</clipPath>
</defs>
</svg>
