<svg width="100" height="20" viewBox="0 0 100 20" fill="none" xmlns="http://www.w3.org/2000/svg">
<g clip-path="url(#clip0_0_376)">
<path d="M35.6263 19.611C32.0038 19.611 28.6412 18.4249 26.3966 16.2253C24.7009 14.5635 23.886 12.3062 23.886 9.98295C23.886 7.68797 24.736 5.41514 26.3964 3.7621C28.4809 1.6879 32.1612 0.388916 35.6263 0.388916C39.4608 0.388916 42.5298 1.44345 44.876 3.7678C46.5453 5.42172 47.3523 7.68447 47.3523 9.98317C47.3523 12.2113 46.4959 14.5841 44.876 16.2253C42.6913 18.4391 39.258 19.611 35.6263 19.611V17.0757C37.549 17.0757 39.3325 16.3509 40.578 14.9978C41.815 13.6539 42.3913 12.0019 42.3913 9.98295C42.3913 8.04884 41.7696 6.24057 40.578 4.95803C39.3491 3.63647 37.523 2.89282 35.6263 2.89282C33.7237 2.89282 31.8964 3.6288 30.6665 4.95803C29.4813 6.24013 28.8581 8.05366 28.8581 9.98295C28.8581 11.9063 29.4886 13.7187 30.6665 14.998C31.8974 16.3349 33.7183 17.0757 35.6263 17.0757V19.611ZM9.14978 0.398124C7.21204 0.398124 5.01065 0.793847 3.14019 1.70587C1.4139 2.54687 0.000854901 3.90701 0.000854901 6.16186C5.16948e-05 8.19266 1.18217 9.38202 1.15004 9.34913C1.65285 9.85447 2.46228 10.715 4.57853 11.2203C5.5243 11.4461 7.54638 11.793 9.56002 12.0227C11.5588 12.2529 13.5258 12.4717 14.327 12.6932C14.9636 12.8701 16.0329 13.111 16.0329 14.4207C16.0329 15.7252 14.9064 16.1233 14.7106 16.2097C14.515 16.2941 13.1636 16.9711 10.7343 16.9711C8.94074 16.9711 6.78454 16.3823 5.9986 16.0753C5.09258 15.7232 4.14219 15.2576 3.25565 14.0752C3.03517 13.7821 2.68738 12.976 2.68738 12.1777H0.488803V18.9039H2.93256V17.9952C2.93256 17.8917 3.05103 17.4662 3.46127 17.6685C3.97171 17.9217 5.47009 18.5731 7.03674 18.9302C8.32127 19.2236 9.14958 19.4338 10.7466 19.4338C13.3522 19.4338 14.7519 18.9703 15.7196 18.6687C16.6312 18.3837 17.7577 17.872 18.6728 17.0753C19.1684 16.6445 20.2551 15.5402 20.2551 13.5357C20.2551 11.6117 19.3093 10.4175 18.9766 10.0542C18.5234 9.55916 17.9698 9.1755 17.3929 8.87975C16.8903 8.62148 16.0971 8.31126 15.4481 8.13785C14.1885 7.80022 11.3403 7.38367 9.97829 7.22801C8.54998 7.06512 6.07229 6.84106 5.08274 6.50672C4.78274 6.40522 4.1711 6.0871 4.1711 5.31188C4.1711 4.7605 4.45082 4.29309 5.00363 3.91534C5.88113 3.31507 7.65361 2.94193 9.50118 2.94193C11.6855 2.93316 13.5353 3.4784 14.712 4.0528C15.1122 4.24793 15.5805 4.52811 15.9523 4.8596C16.372 5.23318 16.9612 6.00949 17.1742 7.09231H19.1481V1.23736H16.9441V1.91787C16.9441 2.13755 16.7363 2.423 16.3433 2.1871C15.357 1.62212 12.5682 0.403166 9.14938 0.398124M57.4494 1.46208L68.2007 12.0556L68.0903 4.92318C68.0794 3.98791 67.9216 3.59745 66.9951 3.59745H64.9736V1.46384H74.1663V3.59745H72.1945C71.2495 3.59745 71.1898 3.9274 71.1784 4.92318L71.3451 18.5516H68.1969L55.8135 6.4848L55.8161 15.0486C55.8269 15.9795 55.8669 16.418 56.7454 16.418H58.9532V18.5507H49.9252V16.4182H52.0356C52.8239 16.4182 52.7926 15.5976 52.7926 15.0002V5.00429C52.7926 4.35908 52.7097 3.59898 51.4719 3.59898H49.7595V1.46208H57.4494ZM84.6709 16.414C84.7572 16.414 85.1407 16.402 85.215 16.3772C85.3085 16.3464 85.3947 16.2938 85.4677 16.223C85.5408 16.1522 85.5988 16.0649 85.6379 15.9672C85.666 15.8949 85.6801 15.5748 85.6801 15.5053L85.6817 12.1334C85.6817 12.0523 85.6763 12.0172 85.5502 11.8366C85.4116 11.6393 79.9187 4.84294 79.6673 4.54368C79.355 4.17207 78.8068 3.59767 77.9739 3.59767H76.0637V1.46318H86.8441V3.59504H85.5445C85.2439 3.59504 85.0442 3.90635 85.301 4.25231C85.301 4.25231 88.9281 8.98936 88.9624 9.03891C88.9961 9.08934 89.025 9.10139 89.0712 9.05535C89.1166 9.00822 92.7893 4.29572 92.8182 4.25845C92.9929 4.03 92.8744 3.59745 92.4979 3.59745H91.1648V1.46318H100V3.59745H98.0262C97.3101 3.59745 97.0188 3.74215 96.48 4.40709C96.2336 4.71139 90.6821 11.6299 90.5311 11.8173C90.4519 11.9153 90.4588 12.0519 90.4588 12.133V15.5044C90.4588 15.5728 90.4728 15.8934 90.5009 15.9653C90.54 16.0631 90.5982 16.1505 90.6713 16.2213C90.7445 16.2921 90.8309 16.3446 90.9246 16.3752C90.9989 16.4002 91.3772 16.4125 91.4634 16.4125H93.4824V18.5466H82.7576V16.4123L84.6713 16.414H84.6709Z" fill="white"/>
</g>
<defs>
<clipPath id="clip0_0_376">
<rect width="100" height="19.5652" fill="white" transform="translate(0 0.217407)"/>
</clipPath>
</defs>
</svg>
