<svg width="162" height="42" viewBox="0 0 162 42" fill="none" xmlns="http://www.w3.org/2000/svg">
<path d="M30.0093 9.84573C29.049 9.84573 28.2594 9.57187 27.6406 9.02417C27.0431 8.45539 26.7444 7.76022 26.7444 6.93866C26.7444 6.09604 27.0431 5.40087 27.6406 4.85316C28.2594 4.28439 29.049 4 30.0093 4C30.9482 4 31.7164 4.28439 32.3139 4.85316C32.9327 5.40087 33.2422 6.09604 33.2422 6.93866C33.2422 7.76022 32.9327 8.45539 32.3139 9.02417C31.7164 9.57187 30.9482 9.84573 30.0093 9.84573ZM32.73 11.6784V29.3104H27.2565V11.6784H32.73Z" fill="#FC3F37"/>
<path d="M43.4825 11.4257C44.7415 11.4257 45.8405 11.6784 46.7794 12.184C47.7397 12.6896 48.4759 13.3532 48.9881 14.1747V11.6784H54.4616V29.2788C54.4616 30.9009 54.1308 32.3649 53.4693 33.671C52.8291 34.9981 51.8369 36.0514 50.4925 36.8309C49.1694 37.6103 47.5157 38 45.5311 38C42.885 38 40.7404 37.3786 39.0973 36.1357C37.4542 34.9139 36.5152 33.2497 36.2805 31.1431H41.69C41.8607 31.8172 42.2662 32.3439 42.9064 32.7231C43.5465 33.1233 44.3361 33.3234 45.275 33.3234C46.406 33.3234 47.3023 32.9969 47.9638 32.3439C48.6466 31.7119 48.9881 30.6902 48.9881 29.2788V26.7825C48.4546 27.6041 47.7184 28.2782 46.7794 28.8048C45.8405 29.3104 44.7415 29.5632 43.4825 29.5632C42.0101 29.5632 40.6764 29.1946 39.4814 28.4573C38.2864 27.6989 37.3368 26.6351 36.6326 25.2658C35.9498 23.8755 35.6083 22.2745 35.6083 20.4628C35.6083 18.6512 35.9498 17.0607 36.6326 15.6915C37.3368 14.3222 38.2864 13.2689 39.4814 12.5316C40.6764 11.7943 42.0101 11.4257 43.4825 11.4257ZM48.9881 20.4944C48.9881 19.1462 48.604 18.0824 47.8357 17.303C47.0889 16.5235 46.1713 16.1338 45.083 16.1338C43.9947 16.1338 43.0664 16.5235 42.2982 17.303C41.5513 18.0613 41.1779 19.1146 41.1779 20.4628C41.1779 21.811 41.5513 22.8854 42.2982 23.6859C43.0664 24.4653 43.9947 24.855 45.083 24.855C46.1713 24.855 47.0889 24.4653 47.8357 23.6859C48.604 22.9064 48.9881 21.8426 48.9881 20.4944Z" fill="#FC3F37"/>
<path d="M61.1742 9.84573C60.2139 9.84573 59.4244 9.57187 58.8056 9.02417C58.2081 8.45539 57.9093 7.76022 57.9093 6.93866C57.9093 6.09604 58.2081 5.40087 58.8056 4.85316C59.4244 4.28439 60.2139 4 61.1742 4C62.1131 4 62.8814 4.28439 63.4789 4.85316C64.0977 5.40087 64.4071 6.09604 64.4071 6.93866C64.4071 7.76022 64.0977 8.45539 63.4789 9.02417C62.8814 9.57187 62.1131 9.84573 61.1742 9.84573ZM63.895 11.6784V29.3104H58.4214V11.6784H63.895Z" fill="#FC3F37"/>
<path d="M93.4967 29.5632C91.7469 29.5632 90.1678 29.1946 88.7594 28.4573C87.3724 27.72 86.2734 26.6667 85.4625 25.2974C84.6729 23.9281 84.2782 22.3271 84.2782 20.4944C84.2782 18.6828 84.6836 17.0923 85.4945 15.7231C86.3054 14.3327 87.415 13.2689 88.8234 12.5316C90.2318 11.7943 91.8109 11.4257 93.5608 11.4257C95.3106 11.4257 96.8897 11.7943 98.2981 12.5316C99.7065 13.2689 100.816 14.3327 101.627 15.7231C102.438 17.0923 102.843 18.6828 102.843 20.4944C102.843 22.3061 102.427 23.9071 101.595 25.2974C100.784 26.6667 99.6638 27.72 98.2341 28.4573C96.8257 29.1946 95.2466 29.5632 93.4967 29.5632ZM93.4967 24.8866C94.5424 24.8866 95.4279 24.5074 96.1535 23.7491C96.9004 22.9907 97.2738 21.9058 97.2738 20.4944C97.2738 19.083 96.911 17.9981 96.1855 17.2398C95.4813 16.4814 94.6064 16.1022 93.5608 16.1022C92.4938 16.1022 91.6082 16.4814 90.904 17.2398C90.1998 17.9771 89.8477 19.062 89.8477 20.4944C89.8477 21.9058 90.1891 22.9907 90.872 23.7491C91.5762 24.5074 92.4511 24.8866 93.4967 24.8866Z" fill="#FBFBFB"/>
<path d="M111.221 14.6171C111.861 13.6481 112.661 12.8897 113.621 12.342C114.582 11.7732 115.649 11.4888 116.822 11.4888V17.2082H115.318C113.952 17.2082 112.928 17.5031 112.245 18.0929C111.562 18.6617 111.221 19.6729 111.221 21.1264V29.3104H105.747V11.6784H111.221V14.6171Z" fill="#FBFBFB"/>
<path d="M126.224 11.4257C127.483 11.4257 128.582 11.6784 129.521 12.184C130.482 12.6896 131.218 13.3532 131.73 14.1747V11.6784H137.203V29.2788C137.203 30.9009 136.873 32.3649 136.211 33.671C135.571 34.9981 134.579 36.0514 133.234 36.8309C131.911 37.6103 130.258 38 128.273 38C125.627 38 123.482 37.3786 121.839 36.1357C120.196 34.9139 119.257 33.2497 119.022 31.1431H124.432C124.603 31.8172 125.008 32.3439 125.648 32.7231C126.288 33.1233 127.078 33.3234 128.017 33.3234C129.148 33.3234 130.044 32.9969 130.706 32.3439C131.388 31.7119 131.73 30.6902 131.73 29.2788V26.7825C131.196 27.6041 130.46 28.2782 129.521 28.8048C128.582 29.3104 127.483 29.5632 126.224 29.5632C124.752 29.5632 123.418 29.1946 122.223 28.4573C121.028 27.6989 120.079 26.6351 119.374 25.2658C118.692 23.8755 118.35 22.2745 118.35 20.4628C118.35 18.6512 118.692 17.0607 119.374 15.6915C120.079 14.3222 121.028 13.2689 122.223 12.5316C123.418 11.7943 124.752 11.4257 126.224 11.4257ZM131.73 20.4944C131.73 19.1462 131.346 18.0824 130.578 17.303C129.831 16.5235 128.913 16.1338 127.825 16.1338C126.737 16.1338 125.808 16.5235 125.04 17.303C124.293 18.0613 123.92 19.1146 123.92 20.4628C123.92 21.811 124.293 22.8854 125.04 23.6859C125.808 24.4653 126.737 24.855 127.825 24.855C128.913 24.855 129.831 24.4653 130.578 23.6859C131.346 22.9064 131.73 21.8426 131.73 20.4944Z" fill="#FBFBFB"/>
<path d="M158 20.21C158 20.7156 157.968 21.2423 157.904 21.79H145.517C145.602 22.8854 145.954 23.728 146.573 24.3178C147.213 24.8866 147.992 25.171 148.909 25.171C150.275 25.171 151.225 24.6022 151.758 23.4647H157.584C157.285 24.6233 156.741 25.6661 155.951 26.5929C155.183 27.5198 154.212 28.2466 153.039 28.7732C151.865 29.2999 150.553 29.5632 149.102 29.5632C147.352 29.5632 145.794 29.1946 144.428 28.4573C143.062 27.72 141.996 26.6667 141.227 25.2974C140.459 23.9281 140.075 22.3271 140.075 20.4944C140.075 18.6617 140.448 17.0607 141.195 15.6915C141.964 14.3222 143.031 13.2689 144.396 12.5316C145.762 11.7943 147.33 11.4257 149.102 11.4257C150.83 11.4257 152.366 11.7838 153.711 12.5C155.055 13.2162 156.101 14.2379 156.848 15.5651C157.616 16.8922 158 18.4405 158 20.21ZM152.398 18.7881C152.398 17.8612 152.078 17.1239 151.438 16.5762C150.798 16.0285 149.998 15.7546 149.038 15.7546C148.12 15.7546 147.341 16.018 146.701 16.5446C146.082 17.0713 145.698 17.8191 145.549 18.7881H152.398Z" fill="#FBFBFB"/>
<path d="M82.4897 7.12825V11.4573H67.8616V7.12825H82.4897Z" fill="#FBFBFB"/>
<path d="M73.3351 16.1338H80.185V20.3364H73.3351V29.3104H67.8616V16.1338H73.3351Z" fill="#FBFBFB"/>
<path d="M12.4184 7.12825C14.787 7.12825 16.8569 7.5917 18.6281 8.51859C20.3992 9.44548 21.765 10.7516 22.7252 12.4368C23.7068 14.101 24.1976 16.0285 24.1976 18.2193C24.1976 20.3891 23.7068 22.3166 22.7252 24.0019C21.765 25.6871 20.3886 26.9932 18.5961 27.9201C16.8249 28.847 14.7657 29.3104 12.4184 29.3104H4V13.448H9.47353V24.6338H12.0663C14.1362 24.6338 15.7473 24.0756 16.8996 22.9591C18.0519 21.8426 18.6281 20.2627 18.6281 18.2193C18.6281 16.176 18.0519 14.5855 16.8996 13.448C15.7473 12.3104 14.1362 11.7416 12.0663 11.7416H4.01563V7.12825H12.4184Z" fill="#FC3F37"/>
</svg>
